<?xml version="1.0" encoding="utf-8"?>
<!-- Generator: Adobe Illustrator 21.1.0, SVG Export Plug-In . SVG Version: 6.00 Build 0)  -->
<svg version="1.1" id="Capa_1" xmlns="http://www.w3.org/2000/svg" xmlns:xlink="http://www.w3.org/1999/xlink" x="0px" y="0px"
	 viewBox="0 0 500 77.5" style="enable-background:new 0 0 500 77.5;" xml:space="preserve">
<style type="text/css">
	.st0{clip-path:url(#SVGID_2_);fill:url(#SVGID_3_);}
	.st1{fill:#FFFFFF;}
	.st2{fill:#0061AF;}
</style>
<g>
	<g>
		<defs>
			<path id="SVGID_1_" d="M13.5,0.5C6.2,0.5,0.4,6.3,0.4,13.6v50.8c0,7.2,5.9,13.1,13.1,13.1h50.8c7.2,0,13.1-5.9,13.1-13.1V13.6
				c0-7.2-5.9-13.1-13.1-13.1H13.5z"/>
		</defs>
		<clipPath id="SVGID_2_">
			<use xlink:href="#SVGID_1_"  style="overflow:visible;"/>
		</clipPath>
		
			<linearGradient id="SVGID_3_" gradientUnits="userSpaceOnUse" x1="37.8293" y1="812.3592" x2="39.2926" y2="812.3592" gradientTransform="matrix(-46.2359 46.2359 46.2359 46.2359 -35737.6328 -39304.793)">
			<stop  offset="0" style="stop-color:#6DCFF6"/>
			<stop  offset="4.616532e-02" style="stop-color:#68C4EF"/>
			<stop  offset="0.2739" style="stop-color:#5094D0"/>
			<stop  offset="0.4902" style="stop-color:#3D6EB8"/>
			<stop  offset="0.6894" style="stop-color:#3053A6"/>
			<stop  offset="0.8653" style="stop-color:#28439C"/>
			<stop  offset="0.9994" style="stop-color:#253D98"/>
			<stop  offset="1" style="stop-color:#253D98"/>
		</linearGradient>
		<polygon class="st0" points="115.9,39 38.9,116 -38.1,39 38.9,-38 		"/>
	</g>
	<path class="st1" d="M29.8,19.7v13.7c-2.3-2.6-5.7-4.3-9.5-4.3c-7,0-12.6,5.6-12.6,12.6c0,7,5.6,12.6,12.6,12.6
		c7,0,12.6-5.6,12.6-12.6V19.7H29.8z M20.3,51.3c-5.2,0-9.5-4.2-9.5-9.5c0-5.2,4.2-9.5,9.5-9.5c5.2,0,9.5,4.2,9.5,9.5
		C29.8,47,25.5,51.3,20.3,51.3"/>
	<path class="st1" d="M60.3,29.2c-3.3,0-6.2,1.7-7.9,4.2c-1.7-2.6-4.6-4.2-7.9-4.2c-5.2,0-9.5,4.2-9.5,9.5v15.8h3.2v-8.7v-7
		c0-3.5,2.8-6.3,6.3-6.3c3.5,0,6.3,2.8,6.3,6.3v7v8.7H54v-8.7v-7c0-3.5,2.8-6.3,6.3-6.3c3.5,0,6.3,2.8,6.3,6.3v7v8.7h3.2V38.6
		C69.8,33.4,65.6,29.2,60.3,29.2"/>
	<path class="st2" d="M108,54.9c-1.5,0-2.9-0.3-4.3-0.9c-1.4-0.6-2.6-1.4-3.7-2.5c-1.1-1.1-1.9-2.5-2.6-4.1c-0.7-1.6-1-3.5-1-5.6
		v-0.1c0-2.1,0.3-4,1-5.6c0.6-1.6,1.5-3,2.6-4.1c1.1-1.1,2.3-2,3.7-2.5c1.4-0.6,2.9-0.9,4.4-0.9c1.9,0,3.5,0.4,4.8,1.1
		c1.3,0.8,2.3,1.7,3.2,2.7V19.7h7.2v34.7h-7.2v-3.7c-0.9,1.2-2,2.2-3.2,3C111.5,54.5,109.9,54.9,108,54.9 M109.8,48.7
		c0.9,0,1.7-0.2,2.4-0.5c0.7-0.3,1.4-0.8,2-1.4c0.6-0.6,1-1.4,1.3-2.2c0.3-0.9,0.5-1.8,0.5-2.9v-0.1c0-1-0.2-2-0.5-2.9
		c-0.3-0.9-0.8-1.6-1.3-2.2c-0.6-0.6-1.2-1.1-2-1.4c-0.7-0.3-1.5-0.5-2.4-0.5c-0.9,0-1.7,0.2-2.4,0.5c-0.7,0.3-1.4,0.8-2,1.4
		c-0.6,0.6-1,1.4-1.4,2.2c-0.3,0.9-0.5,1.8-0.5,2.9v0.1c0,1,0.2,2,0.5,2.9c0.3,0.9,0.8,1.6,1.4,2.2c0.6,0.6,1.2,1.1,2,1.4
		C108.2,48.6,109,48.7,109.8,48.7"/>
	<path class="st2" d="M139,55c-1.9,0-3.7-0.3-5.3-0.9c-1.6-0.6-3-1.5-4.2-2.7c-1.2-1.2-2.1-2.6-2.8-4.2c-0.7-1.6-1-3.4-1-5.3v-0.1
		c0-1.8,0.3-3.5,0.9-5.1c0.6-1.6,1.5-3,2.6-4.2c1.1-1.2,2.4-2.2,4-2.9c1.5-0.7,3.2-1,5.1-1c2.1,0,4,0.4,5.5,1.1
		c1.6,0.8,2.8,1.8,3.9,3.1c1,1.3,1.8,2.8,2.3,4.4c0.5,1.7,0.7,3.4,0.7,5.2c0,0.3,0,0.6,0,0.9c0,0.3,0,0.6-0.1,1h-17.7
		c0.3,1.6,1.1,2.9,2.2,3.7c1.1,0.8,2.4,1.3,4.1,1.3c1.2,0,2.3-0.2,3.2-0.6c0.9-0.4,1.9-1.1,2.9-2l4.1,3.7c-1.2,1.5-2.7,2.7-4.4,3.5
		C143.3,54.5,141.3,55,139,55 M143.7,39.6c-0.2-1.6-0.8-2.9-1.7-3.9c-0.9-1-2.1-1.5-3.7-1.5s-2.8,0.5-3.7,1.5
		c-0.9,1-1.5,2.3-1.8,3.9H143.7z"/>
	<path class="st2" d="M153.4,28.9h7.2V34c0.7-1.7,1.7-3.1,3-4.2c1.3-1,3-1.5,5.1-1.4V36h-0.4c-2.4,0-4.3,0.7-5.7,2.2
		c-1.4,1.5-2.1,3.7-2.1,6.8v9.4h-7.2V28.9z"/>
	<path class="st2" d="M170.5,28.9h7.2V34c0.7-1.7,1.7-3.1,3-4.2c1.3-1,3-1.5,5.1-1.4V36h-0.4c-2.4,0-4.3,0.7-5.7,2.2
		c-1.4,1.5-2.1,3.7-2.1,6.8v9.4h-7.2V28.9z"/>
	<path class="st2" d="M194.9,54.9c-1.2,0-2.3-0.2-3.4-0.5c-1.1-0.3-2-0.8-2.8-1.5c-0.8-0.7-1.4-1.5-1.9-2.4c-0.5-1-0.7-2.1-0.7-3.4
		V47c0-1.4,0.3-2.6,0.8-3.6c0.5-1,1.2-1.9,2.1-2.5c0.9-0.7,2-1.2,3.2-1.5c1.3-0.3,2.6-0.5,4.2-0.5c1.3,0,2.4,0.1,3.4,0.3
		c1,0.2,1.9,0.4,2.8,0.8v-0.4c0-1.5-0.5-2.7-1.4-3.5c-0.9-0.8-2.3-1.2-4.1-1.2c-1.4,0-2.6,0.1-3.7,0.4c-1.1,0.2-2.2,0.6-3.4,1
		l-1.8-5.5c1.4-0.6,2.9-1.1,4.4-1.5c1.5-0.4,3.4-0.6,5.5-0.6c2,0,3.7,0.2,5.1,0.7c1.4,0.5,2.6,1.2,3.5,2.1c1,1,1.6,2.1,2.1,3.5
		c0.4,1.4,0.7,2.9,0.7,4.6v14.8h-7v-2.8c-0.9,1-2,1.8-3.2,2.4C198.2,54.6,196.7,54.9,194.9,54.9 M197.1,49.9c1.7,0,3.1-0.4,4.1-1.2
		c1-0.8,1.5-1.9,1.5-3.2v-1.3c-0.6-0.3-1.3-0.5-2.1-0.7c-0.8-0.2-1.6-0.3-2.5-0.3c-1.6,0-2.8,0.3-3.7,0.9c-0.9,0.6-1.3,1.5-1.3,2.6
		v0.1c0,1,0.4,1.7,1.1,2.3C195,49.6,195.9,49.9,197.1,49.9"/>
	<path class="st2" d="M213.1,28.9h7.2v3.6c0.4-0.5,0.9-1.1,1.4-1.6c0.5-0.5,1-0.9,1.6-1.3c0.6-0.4,1.3-0.7,2-0.9
		c0.7-0.2,1.6-0.3,2.5-0.3c1.7,0,3.1,0.4,4.4,1.1c1.2,0.7,2.2,1.7,2.8,3c1.1-1.3,2.3-2.4,3.7-3c1.4-0.7,2.9-1,4.7-1
		c2.7,0,4.8,0.8,6.3,2.4c1.5,1.6,2.3,3.9,2.3,7v16.6h-7.2V40.2c0-1.7-0.4-3-1.1-3.9c-0.7-0.9-1.8-1.3-3.1-1.3
		c-1.4,0-2.4,0.4-3.2,1.3c-0.8,0.9-1.2,2.2-1.2,3.9v14.2H229V40.2c0-1.7-0.4-3-1.1-3.9c-0.7-0.9-1.8-1.3-3.1-1.3
		c-1.4,0-2.4,0.4-3.2,1.3c-0.8,0.9-1.2,2.2-1.2,3.9v14.2h-7.2V28.9z"/>
	<path class="st2" d="M262.8,54.9c-1.2,0-2.3-0.2-3.4-0.5c-1.1-0.3-2-0.8-2.8-1.5c-0.8-0.7-1.4-1.5-1.9-2.4c-0.5-1-0.7-2.1-0.7-3.4
		V47c0-1.4,0.3-2.6,0.8-3.6c0.5-1,1.2-1.9,2.1-2.5c0.9-0.7,2-1.2,3.2-1.5c1.3-0.3,2.6-0.5,4.2-0.5c1.3,0,2.4,0.1,3.4,0.3
		c1,0.2,1.9,0.4,2.8,0.8v-0.4c0-1.5-0.5-2.7-1.4-3.5c-0.9-0.8-2.3-1.2-4.1-1.2c-1.4,0-2.6,0.1-3.7,0.4c-1.1,0.2-2.2,0.6-3.4,1
		l-1.8-5.5c1.4-0.6,2.9-1.1,4.4-1.5c1.5-0.4,3.4-0.6,5.5-0.6c2,0,3.7,0.2,5.1,0.7c1.4,0.5,2.6,1.2,3.5,2.1c1,1,1.6,2.1,2.1,3.5
		c0.4,1.4,0.7,2.9,0.7,4.6v14.8h-7v-2.8c-0.9,1-1.9,1.8-3.2,2.4C266.1,54.6,264.6,54.9,262.8,54.9 M265,49.9c1.7,0,3.1-0.4,4.1-1.2
		c1-0.8,1.5-1.9,1.5-3.2v-1.3c-0.6-0.3-1.3-0.5-2.1-0.7c-0.8-0.2-1.6-0.3-2.5-0.3c-1.6,0-2.8,0.3-3.7,0.9c-0.9,0.6-1.3,1.5-1.3,2.6
		v0.1c0,1,0.4,1.7,1.1,2.3C262.9,49.6,263.8,49.9,265,49.9"/>
	<path class="st2" d="M323.8,54.4V40c0-5.2-2.7-8.3-7.2-8.3c-4.1,0-7.7,3.1-7.7,8.6v14.1h-2.3V39.8c0-5-2.8-8.1-7.1-8.1
		c-4.3,0-7.8,3.8-7.8,8.7v14h-2.3V30.1h2.3v4.3c1.6-2.5,3.8-4.9,8.1-4.9c4.2,0,6.8,2.4,8.2,5.2c1.6-2.7,4.2-5.2,8.8-5.2
		c5.8,0,9.3,4,9.3,10.1v14.7H323.8z"/>
	<path class="st2" d="M347.8,54.4v-4c-1.7,2.3-4.7,4.6-9.3,4.6c-4.5,0-9.4-2.6-9.4-7.6v-0.1c0-5,4.3-7.9,10.6-7.9c3.4,0,5.7,0.4,8,1
		v-1c0-4.9-3-7.4-8-7.4c-2.9,0-5.4,0.8-7.6,2l-0.9-2c2.7-1.2,5.3-2.1,8.6-2.1c6.2,0,10.1,3.2,10.1,9.5v15.1H347.8z M347.8,42.5
		c-2-0.5-4.8-1.1-8.2-1.1c-5.1,0-8,2.3-8,5.7v0.1c0,3.5,3.3,5.6,7,5.6c4.9,0,9.2-3,9.2-7.5V42.5z"/>
	<path class="st2" d="M365.5,62.1c-4,0-7.8-1.2-11.1-3.7l1.4-1.9c2.9,2.2,6.2,3.4,9.8,3.4c5.6,0,9.5-3.2,9.5-9.4V47
		c-2.1,3-5.3,5.6-10.1,5.6c-5.8,0-11.7-4.5-11.7-11.4v-0.1c0-7,5.8-11.5,11.7-11.5c4.9,0,8.1,2.6,10.1,5.4v-4.9h2.3v20.5
		C377.4,58,372.4,62.1,365.5,62.1 M375.2,41c0-5.6-5-9.2-10-9.2c-5.1,0-9.4,3.5-9.4,9.2v0.1c0,5.5,4.4,9.3,9.4,9.3
		C370.2,50.3,375.2,46.6,375.2,41L375.2,41z"/>
	<path class="st2" d="M382.7,20.6h2.9v3.2h-2.9V20.6z M383,30.1h2.3v24.3H383V30.1z"/>
	<path class="st2" d="M398.8,54.9c-3.5,0-7.4-1.4-9.9-3.5l1.4-1.9c2.7,2,5.6,3.2,8.7,3.2c3.3,0,5.8-1.8,5.8-4.6V48
		c0-2.9-3-3.9-6.4-4.9c-3.9-1.1-8.3-2.3-8.3-6.7v-0.1c0-3.9,3.3-6.7,8-6.7c2.9,0,6.2,1,8.6,2.7l-1.2,1.9c-2.2-1.5-4.9-2.4-7.5-2.4
		c-3.3,0-5.5,1.8-5.5,4.2v0.1c0,2.7,3.3,3.7,6.8,4.7c3.9,1.1,8,2.5,8,6.8v0.1C407.2,52.1,403.5,54.9,398.8,54.9"/>
	<path class="st2" d="M418.6,54.8c-3.8,0-6.8-2-6.8-6.7V32.3h-3.5v-2.1h3.5v-7.8h2.3v7.8h8.5v2.1h-8.5v15.6c0,3.5,2,4.7,4.9,4.7
		c1.2,0,2.2-0.2,3.6-0.9V54C421.3,54.5,420.2,54.8,418.6,54.8"/>
	<path class="st2" d="M435.6,52.8c3.8,0,6.3-1.7,8.3-3.8l1.6,1.4c-2.5,2.7-5.4,4.6-10,4.6c-6.4,0-11.9-5.1-11.9-12.6v-0.1
		c0-7,4.9-12.7,11.5-12.7c6.8,0,11.1,5.5,11.1,12.7v0.1c0,0.3,0,0.5,0,0.9h-20.1C426.5,49.3,430.9,52.8,435.6,52.8 M443.7,41.1
		c-0.3-4.9-3.1-9.4-8.7-9.4c-4.8,0-8.5,4-8.9,9.4H443.7z"/>
	<path class="st2" d="M462.3,32.3c-5.6,0-10.5,4.2-10.5,12.1v9.9h-2.3V30.1h2.3V37c1.9-4.3,5.9-7.5,10.7-7.3v2.6H462.3z"/>
	<path class="st2" d="M465,20.6h2.9v3.2H465V20.6z M465.3,30.1h2.3v24.3h-2.3V30.1z"/>
	<path class="st2" d="M489.9,54.4v-4c-1.7,2.3-4.7,4.6-9.3,4.6c-4.5,0-9.4-2.6-9.4-7.6v-0.1c0-5,4.3-7.9,10.6-7.9c3.4,0,5.7,0.4,8,1
		v-1c0-4.9-3-7.4-8-7.4c-2.9,0-5.4,0.8-7.6,2l-0.9-2c2.7-1.2,5.3-2.1,8.6-2.1c6.2,0,10.1,3.2,10.1,9.5v15.1H489.9z M489.9,42.5
		c-2-0.5-4.8-1.1-8.2-1.1c-5.1,0-8,2.3-8,5.7v0.1c0,3.5,3.3,5.6,7,5.6c4.9,0,9.2-3,9.2-7.5V42.5z"/>
	<rect x="497.3" y="19.7" class="st2" width="2.3" height="34.7"/>
</g>
</svg>
