<?xml version="1.0" encoding="utf-8"?>
<!-- Generator: Adobe Illustrator 26.5.0, SVG Export Plug-In . SVG Version: 6.00 Build 0)  -->
<svg version="1.1" id="Capa_1" xmlns="http://www.w3.org/2000/svg" xmlns:xlink="http://www.w3.org/1999/xlink" x="0px" y="0px"
	 viewBox="0 0 232 36" style="enable-background:new 0 0 232 36;" xml:space="preserve">
<style type="text/css">
	
		.st0{clip-path:url(#SVGID_00000026161512925425415370000000565626700402090419_);fill:url(#SVGID_00000181048302969827189630000003454401540234021287_);}
	.st1{fill:#FFFFFF;}
	.st2{fill:#0061AF;}
</style>
<g>
	<g>
		<g>
			<defs>
				<path id="SVGID_1_" d="M6.1,0.2C2.7,0.2,0,2.9,0,6.2v23.5c0,3.3,2.7,6.1,6.1,6.1h23.5c3.3,0,6.1-2.7,6.1-6.1V6.2
					c0-3.3-2.7-6.1-6.1-6.1H6.1z"/>
			</defs>
			<clipPath id="SVGID_00000090278026228034067790000014134995897385645233_">
				<use xlink:href="#SVGID_1_"  style="overflow:visible;"/>
			</clipPath>
			
				<linearGradient id="SVGID_00000053523687740088184160000011167296970825165502_" gradientUnits="userSpaceOnUse" x1="-296.1448" y1="-573.4804" x2="-295.4671" y2="-573.4804" gradientTransform="matrix(-46.2359 46.2359 -46.2359 -46.2359 -40174.0703 -12820.8691)">
				<stop  offset="0" style="stop-color:#6DCFF6"/>
				<stop  offset="4.616532e-02" style="stop-color:#68C4EF"/>
				<stop  offset="0.2739" style="stop-color:#5094D0"/>
				<stop  offset="0.4902" style="stop-color:#3D6EB8"/>
				<stop  offset="0.6894" style="stop-color:#3053A6"/>
				<stop  offset="0.8653" style="stop-color:#28439C"/>
				<stop  offset="0.9994" style="stop-color:#253D98"/>
				<stop  offset="1" style="stop-color:#253D98"/>
			</linearGradient>
			
				<polygon style="clip-path:url(#SVGID_00000090278026228034067790000014134995897385645233_);fill:url(#SVGID_00000053523687740088184160000011167296970825165502_);" points="
				53.5,18 17.8,53.7 -17.8,18 17.8,-17.7 			"/>
		</g>
	</g>
	<path class="st1" d="M13.6,9.1v6.3c-1.1-1.2-2.6-2-4.4-2c-3.2,0-5.8,2.6-5.8,5.8s2.6,5.8,5.8,5.8s5.8-2.6,5.8-5.8V9.1H13.6z
		 M9.2,23.7c-2.4,0-4.4-1.9-4.4-4.4c0-2.4,1.9-4.4,4.4-4.4c2.4,0,4.4,1.9,4.4,4.4C13.6,21.7,11.6,23.7,9.2,23.7"/>
	<path class="st1" d="M27.7,13.5c-1.5,0-2.9,0.8-3.7,1.9c-0.8-1.2-2.1-1.9-3.7-1.9c-2.4,0-4.4,1.9-4.4,4.4v7.3h1.5v-4v-3.2
		c0-1.6,1.3-2.9,2.9-2.9s2.9,1.3,2.9,2.9v3.2v4h1.5v-4v-3.2c0-1.6,1.3-2.9,2.9-2.9s2.9,1.3,2.9,2.9v3.2v4h1.5v-7.4
		C32.1,15.4,30.2,13.5,27.7,13.5"/>
	<path class="st2" d="M49.8,25.4c-0.7,0-1.3-0.1-2-0.4c-0.6-0.3-1.2-0.6-1.7-1.2c-0.5-0.5-0.9-1.2-1.2-1.9c-0.3-0.7-0.5-1.6-0.5-2.6
		v0c0-1,0.1-1.9,0.5-2.6c0.3-0.7,0.7-1.4,1.2-1.9c0.5-0.5,1.1-0.9,1.7-1.2c0.6-0.3,1.3-0.4,2-0.4c0.9,0,1.6,0.2,2.2,0.5
		c0.6,0.4,1.1,0.8,1.5,1.3V9.1h3.3v16.1h-3.3v-1.7c-0.4,0.6-0.9,1-1.5,1.4C51.5,25.2,50.7,25.4,49.8,25.4 M50.7,22.5
		c0.4,0,0.8-0.1,1.1-0.2c0.3-0.1,0.6-0.4,0.9-0.6c0.3-0.3,0.5-0.6,0.6-1c0.1-0.4,0.2-0.8,0.2-1.3v0c0-0.5-0.1-0.9-0.2-1.3
		c-0.1-0.4-0.4-0.7-0.6-1c-0.3-0.3-0.6-0.5-0.9-0.6c-0.3-0.1-0.7-0.2-1.1-0.2s-0.8,0.1-1.1,0.2c-0.3,0.1-0.6,0.4-0.9,0.6
		c-0.3,0.3-0.5,0.6-0.6,1c-0.1,0.4-0.2,0.8-0.2,1.3v0c0,0.5,0.1,0.9,0.2,1.3c0.1,0.4,0.4,0.7,0.6,1c0.3,0.3,0.6,0.5,0.9,0.6
		C49.9,22.4,50.3,22.5,50.7,22.5"/>
	<path class="st2" d="M64.2,25.4c-0.9,0-1.7-0.1-2.5-0.4c-0.7-0.3-1.4-0.7-1.9-1.3c-0.6-0.6-1-1.2-1.3-1.9c-0.3-0.7-0.5-1.6-0.5-2.5
		v0c0-0.8,0.1-1.6,0.4-2.4c0.3-0.7,0.7-1.4,1.2-1.9c0.5-0.6,1.1-1,1.9-1.3c0.7-0.3,1.5-0.5,2.4-0.5c1,0,1.9,0.2,2.5,0.5
		c0.7,0.4,1.3,0.8,1.8,1.4c0.5,0.6,0.8,1.3,1.1,2c0.2,0.8,0.3,1.6,0.3,2.4c0,0.1,0,0.3,0,0.4c0,0.1,0,0.3,0,0.5h-8.2
		c0.1,0.7,0.5,1.3,1,1.7c0.5,0.4,1.1,0.6,1.9,0.6c0.6,0,1.1-0.1,1.5-0.3c0.4-0.2,0.9-0.5,1.3-0.9l1.9,1.7c-0.6,0.7-1.3,1.3-2,1.6
		C66.2,25.2,65.3,25.4,64.2,25.4 M66.4,18.3c-0.1-0.7-0.4-1.3-0.8-1.8s-1-0.7-1.7-0.7c-0.7,0-1.3,0.2-1.7,0.7
		c-0.4,0.5-0.7,1.1-0.8,1.8H66.4z"/>
	<path class="st2" d="M70.9,13.3h3.3v2.4c0.3-0.8,0.8-1.4,1.4-1.9c0.6-0.5,1.4-0.7,2.4-0.6v3.5h-0.2c-1.1,0-2,0.3-2.6,1
		s-1,1.7-1,3.1v4.4h-3.3L70.9,13.3L70.9,13.3z"/>
	<path class="st2" d="M78.8,13.3h3.3v2.4c0.3-0.8,0.8-1.4,1.4-1.9c0.6-0.5,1.4-0.7,2.4-0.6v3.5h-0.2c-1.1,0-2,0.3-2.6,1
		c-0.6,0.7-1,1.7-1,3.1v4.4h-3.3L78.8,13.3L78.8,13.3z"/>
	<path class="st2" d="M90.1,25.4c-0.6,0-1.1-0.1-1.6-0.2c-0.5-0.1-0.9-0.4-1.3-0.7c-0.4-0.3-0.6-0.7-0.9-1.1c-0.2-0.5-0.3-1-0.3-1.6
		v0c0-0.6,0.1-1.2,0.4-1.7s0.6-0.9,1-1.2c0.4-0.3,0.9-0.6,1.5-0.7C89.4,18,90,18,90.8,18c0.6,0,1.1,0,1.6,0.1
		c0.5,0.1,0.9,0.2,1.3,0.4v-0.2c0-0.7-0.2-1.3-0.6-1.6c-0.4-0.4-1.1-0.6-1.9-0.6c-0.6,0-1.2,0-1.7,0.2c-0.5,0.1-1,0.3-1.6,0.5
		L87,14.2c0.6-0.3,1.3-0.5,2-0.7c0.7-0.2,1.6-0.3,2.5-0.3c0.9,0,1.7,0.1,2.4,0.3s1.2,0.6,1.6,1c0.5,0.5,0.7,1,1,1.6
		c0.2,0.6,0.3,1.3,0.3,2.1v6.9h-3.2v-1.3c-0.4,0.5-0.9,0.8-1.5,1.1C91.6,25.2,90.9,25.4,90.1,25.4 M91.1,23c0.8,0,1.4-0.2,1.9-0.6
		c0.5-0.4,0.7-0.9,0.7-1.5v-0.6c-0.3-0.1-0.6-0.2-1-0.3c-0.4-0.1-0.7-0.1-1.2-0.1c-0.7,0-1.3,0.1-1.7,0.4c-0.4,0.3-0.6,0.7-0.6,1.2
		v0c0,0.5,0.2,0.8,0.5,1.1C90.1,22.9,90.5,23,91.1,23"/>
	<path class="st2" d="M98.5,13.3h3.3V15c0.2-0.2,0.4-0.5,0.6-0.7s0.5-0.4,0.7-0.6c0.3-0.2,0.6-0.3,0.9-0.4c0.3-0.1,0.7-0.1,1.2-0.1
		c0.8,0,1.4,0.2,2,0.5c0.6,0.3,1,0.8,1.3,1.4c0.5-0.6,1.1-1.1,1.7-1.4c0.6-0.3,1.3-0.5,2.2-0.5c1.3,0,2.2,0.4,2.9,1.1
		c0.7,0.7,1.1,1.8,1.1,3.2v7.7h-3.3v-6.6c0-0.8-0.2-1.4-0.5-1.8c-0.3-0.4-0.8-0.6-1.4-0.6c-0.6,0-1.1,0.2-1.5,0.6s-0.6,1-0.6,1.8
		v6.6h-3.3v-6.6c0-0.8-0.2-1.4-0.5-1.8c-0.3-0.4-0.8-0.6-1.4-0.6c-0.6,0-1.1,0.2-1.5,0.6c-0.4,0.4-0.6,1-0.6,1.8v6.6h-3.3L98.5,13.3
		L98.5,13.3z"/>
	<path class="st2" d="M121.5,25.4c-0.6,0-1.1-0.1-1.6-0.2c-0.5-0.1-0.9-0.4-1.3-0.7c-0.4-0.3-0.6-0.7-0.9-1.1
		c-0.2-0.5-0.3-1-0.3-1.6v0c0-0.6,0.1-1.2,0.4-1.7s0.6-0.9,1-1.2c0.4-0.3,0.9-0.6,1.5-0.7c0.6-0.1,1.2-0.2,1.9-0.2
		c0.6,0,1.1,0,1.6,0.1c0.5,0.1,0.9,0.2,1.3,0.4v-0.2c0-0.7-0.2-1.3-0.6-1.6c-0.4-0.4-1.1-0.6-1.9-0.6c-0.6,0-1.2,0-1.7,0.2
		c-0.5,0.1-1,0.3-1.6,0.5l-0.8-2.5c0.6-0.3,1.3-0.5,2-0.7c0.7-0.2,1.6-0.3,2.5-0.3c0.9,0,1.7,0.1,2.4,0.3c0.6,0.2,1.2,0.6,1.6,1
		c0.5,0.5,0.7,1,1,1.6c0.2,0.6,0.3,1.3,0.3,2.1v6.9H125v-1.3c-0.4,0.5-0.9,0.8-1.5,1.1C123.1,25.2,122.4,25.4,121.5,25.4 M122.5,23
		c0.8,0,1.4-0.2,1.9-0.6c0.5-0.4,0.7-0.9,0.7-1.5v-0.6c-0.3-0.1-0.6-0.2-1-0.3c-0.4-0.1-0.7-0.1-1.2-0.1c-0.7,0-1.3,0.1-1.7,0.4
		c-0.4,0.3-0.6,0.7-0.6,1.2v0c0,0.5,0.2,0.8,0.5,1.1C121.6,22.9,122,23,122.5,23"/>
	<path class="st2" d="M149.8,25.1v-6.7c0-2.4-1.3-3.8-3.3-3.8c-1.9,0-3.6,1.4-3.6,4v6.5h-1.1v-6.8c0-2.3-1.3-3.8-3.3-3.8
		c-2,0-3.6,1.8-3.6,4v6.5h-1.1V13.9h1.1v2c0.7-1.2,1.8-2.3,3.8-2.3c1.9,0,3.1,1.1,3.8,2.4c0.7-1.3,1.9-2.4,4.1-2.4
		c2.7,0,4.3,1.9,4.3,4.7v6.8L149.8,25.1L149.8,25.1z"/>
	<path class="st2" d="M160.9,25.1v-1.9c-0.8,1.1-2.2,2.1-4.3,2.1c-2.1,0-4.4-1.2-4.4-3.5v0c0-2.3,2-3.7,4.9-3.7
		c1.6,0,2.6,0.2,3.7,0.5v-0.5c0-2.3-1.4-3.4-3.7-3.4c-1.3,0-2.5,0.4-3.5,0.9l-0.4-0.9c1.3-0.6,2.5-1,4-1c2.9,0,4.7,1.5,4.7,4.4v7
		L160.9,25.1L160.9,25.1z M160.9,19.6c-0.9-0.2-2.2-0.5-3.8-0.5c-2.4,0-3.7,1.1-3.7,2.6v0c0,1.6,1.5,2.6,3.2,2.6
		c2.3,0,4.3-1.4,4.3-3.5V19.6z"/>
	<path class="st2" d="M169.1,28.7c-1.9,0-3.6-0.6-5.1-1.7l0.6-0.9c1.3,1,2.9,1.6,4.5,1.6c2.6,0,4.4-1.5,4.4-4.4v-1.6
		c-1,1.4-2.5,2.6-4.7,2.6c-2.7,0-5.4-2.1-5.4-5.3v0c0-3.2,2.7-5.3,5.4-5.3c2.3,0,3.8,1.2,4.7,2.5v-2.3h1.1v9.5
		C174.6,26.8,172.3,28.7,169.1,28.7 M173.6,18.9c0-2.6-2.3-4.3-4.6-4.3c-2.4,0-4.4,1.6-4.4,4.3v0c0,2.5,2,4.3,4.4,4.3
		C171.3,23.2,173.6,21.5,173.6,18.9L173.6,18.9z"/>
	<path class="st2" d="M177.1,9.5h1.3V11h-1.3V9.5z M177.2,13.9h1.1v11.3h-1.1V13.9z"/>
	<path class="st2" d="M184.5,25.4c-1.6,0-3.4-0.6-4.6-1.6l0.6-0.9c1.3,0.9,2.6,1.5,4,1.5c1.5,0,2.7-0.8,2.7-2.1v0
		c0-1.3-1.4-1.8-3-2.3c-1.8-0.5-3.8-1.1-3.8-3.1v0c0-1.8,1.5-3.1,3.7-3.1c1.3,0,2.9,0.5,4,1.3l-0.6,0.9c-1-0.7-2.3-1.1-3.5-1.1
		c-1.5,0-2.5,0.8-2.5,1.9v0c0,1.3,1.5,1.7,3.1,2.2c1.8,0.5,3.7,1.2,3.7,3.1v0C188.4,24.1,186.7,25.4,184.5,25.4"/>
	<path class="st2" d="M193.7,25.3c-1.8,0-3.1-0.9-3.1-3.1v-7.3h-1.6v-1h1.6v-3.6h1.1v3.6h3.9v1h-3.9v7.2c0,1.6,0.9,2.2,2.3,2.2
		c0.6,0,1-0.1,1.7-0.4v1.1C194.9,25.2,194.4,25.3,193.7,25.3"/>
	<path class="st2" d="M201.6,24.4c1.8,0,2.9-0.8,3.8-1.8l0.7,0.6c-1.2,1.3-2.5,2.1-4.6,2.1c-3,0-5.5-2.4-5.5-5.8v0
		c0-3.2,2.3-5.9,5.3-5.9c3.1,0,5.1,2.5,5.1,5.9v0c0,0.1,0,0.2,0,0.4h-9.3C197.3,22.8,199.4,24.4,201.6,24.4 M205.3,19
		c-0.1-2.3-1.4-4.4-4-4.4c-2.2,0-3.9,1.9-4.1,4.4H205.3z"/>
	<path class="st2" d="M213.9,14.9c-2.6,0-4.9,1.9-4.9,5.6v4.6H208V13.9h1.1v3.2c0.9-2,2.7-3.5,5-3.4L213.9,14.9L213.9,14.9z"/>
	<path class="st2" d="M215.2,9.5h1.3V11h-1.3V9.5z M215.3,13.9h1.1v11.3h-1.1V13.9z"/>
	<path class="st2" d="M226.7,25.1v-1.9c-0.8,1.1-2.2,2.1-4.3,2.1c-2.1,0-4.4-1.2-4.4-3.5v0c0-2.3,2-3.7,4.9-3.7
		c1.6,0,2.6,0.2,3.7,0.5v-0.5c0-2.3-1.4-3.4-3.7-3.4c-1.3,0-2.5,0.4-3.5,0.9l-0.4-0.9c1.3-0.6,2.5-1,4-1c2.9,0,4.7,1.5,4.7,4.4v7
		L226.7,25.1L226.7,25.1z M226.7,19.6c-0.9-0.2-2.2-0.5-3.8-0.5c-2.4,0-3.7,1.1-3.7,2.6v0c0,1.6,1.5,2.6,3.2,2.6
		c2.3,0,4.3-1.4,4.3-3.5V19.6z"/>
	<rect x="230.1" y="9.1" class="st2" width="1.1" height="16.1"/>
</g>
</svg>
